<svg width="48" height="48" viewBox="0 0 48 48" fill="none" xmlns="http://www.w3.org/2000/svg">
<circle cx="24" cy="24" r="24" fill="#2B8CFF" fill-opacity="0.1"/>
<path d="M35.6914 29.2616H34.9416V25.0681C34.9416 24.5775 34.7935 24.0961 34.5188 23.6888L32.6396 20.9055C32.1798 20.2266 31.4146 19.8193 30.5938 19.8193H27.6808C27.3383 19.8193 27.0637 20.097 27.0637 20.4364V29.2616H22.2931C22.7467 29.6535 23.0584 30.1997 23.1479 30.8169H28.1776C28.3566 29.5918 29.4119 28.6445 30.6863 28.6445C31.9608 28.6445 33.013 29.5918 33.192 30.8169H35.6914C35.8611 30.8169 36 30.678 36 30.5083V29.5702C36 29.4005 35.8611 29.2616 35.6914 29.2616ZM32.618 24.2442H28.7731C28.6035 24.2442 28.4646 24.1084 28.4646 23.9356V21.8034C28.4646 21.6337 28.6035 21.4948 28.7731 21.4948H31.1153C31.2171 21.4948 31.3097 21.5442 31.3683 21.6244L32.871 23.7597C33.0129 23.9634 32.8679 24.2442 32.618 24.2442ZM30.6863 29.2616C29.6248 29.2616 28.767 30.1225 28.767 31.184C28.767 32.2424 29.6248 33.1033 30.6863 33.1033C31.7447 33.1033 32.6057 32.2424 32.6057 31.184C32.6057 30.1225 31.7447 29.2616 30.6863 29.2616ZM30.6863 32.1437C30.1555 32.1437 29.7266 31.7117 29.7266 31.1841C29.7266 30.6533 30.1555 30.2244 30.6863 30.2244C31.217 30.2244 31.646 30.6533 31.646 31.1841C31.646 31.7117 31.2171 32.1437 30.6863 32.1437ZM14.6837 29.2616C14.514 29.2616 14.3751 29.4005 14.3751 29.5702V30.5083C14.3751 30.678 14.514 30.8169 14.6837 30.8169H18.1335C18.223 30.1997 18.5347 29.6535 18.9852 29.2616H14.6837V29.2616ZM20.6391 29.2616C19.5807 29.2616 18.7198 30.1225 18.7198 31.184C18.7198 32.2424 19.5807 33.1033 20.6391 33.1033C21.7006 33.1033 22.5585 32.2424 22.5585 31.184C22.5585 30.1225 21.7007 29.2616 20.6391 29.2616ZM20.6391 32.1437C20.1084 32.1437 19.6795 31.7117 19.6795 31.1841C19.6795 30.6533 20.1084 30.2244 20.6391 30.2244C21.1699 30.2244 21.5988 30.6533 21.5988 31.1841C21.5988 31.7117 21.1699 32.1437 20.6391 32.1437ZM25.2554 17.9061H21.679C21.8549 18.4276 21.9475 18.9861 21.9475 19.5632C21.9475 22.4761 19.5777 24.8459 16.6647 24.8459C16.134 24.8459 15.6187 24.7657 15.1342 24.6207V28.0304C15.1342 28.2002 15.2731 28.339 15.4428 28.339H25.8726C26.0423 28.339 26.1812 28.2002 26.1812 28.0304V18.8318C26.1811 18.3196 25.7676 17.9061 25.2554 17.9061ZM16.6654 14.8967C14.0888 14.8967 12 16.9855 12 19.5621C12 22.1388 14.0888 24.2276 16.6654 24.2276C19.2421 24.2276 21.3309 22.1388 21.3309 19.5621C21.3309 16.9855 19.2421 14.8967 16.6654 14.8967ZM16.6654 23.1659C14.6752 23.1659 13.0617 21.5524 13.0617 19.5621C13.0617 17.5718 14.6752 15.9584 16.6654 15.9584C18.6558 15.9584 20.2692 17.5719 20.2692 19.5621C20.2692 21.5524 18.6558 23.1659 16.6654 23.1659ZM18.0418 20.3232C18.002 20.3232 17.9613 20.3181 17.9209 20.3073L16.4173 19.902C16.2154 19.8474 16.075 19.6643 16.075 19.4551V17.1408C16.075 16.8852 16.2823 16.6779 16.5378 16.6779C16.7934 16.6779 17.0007 16.8852 17.0007 17.1408V19.1004L18.162 19.4135C18.4089 19.4801 18.555 19.7341 18.4884 19.9809C18.4327 20.1873 18.2458 20.3232 18.0418 20.3232Z" fill="#2B8CFF"/>
</svg>
