<svg width="20" height="20" viewBox="0 0 20 20" fill="none" xmlns="http://www.w3.org/2000/svg">
<path fill-rule="evenodd" clip-rule="evenodd" d="M5.27332 6.95612L5.77582 12.9328C5.81249 13.3928 6.18832 13.7378 6.64749 13.7378H6.65082H15.7433H15.745C16.1792 13.7378 16.55 13.4145 16.6117 12.9853L17.4033 7.51945C17.4217 7.38945 17.3892 7.25945 17.31 7.15445C17.2317 7.04862 17.1167 6.98028 16.9867 6.96195C16.8125 6.96862 9.58499 6.95862 5.27332 6.95612V6.95612ZM6.64582 14.9878C5.54832 14.9878 4.61915 14.1311 4.52999 13.0353L3.76665 3.95695L2.51082 3.74028C2.16999 3.68028 1.94249 3.35778 2.00082 3.01695C2.06082 2.67612 2.38999 2.45445 2.72332 2.50778L4.45665 2.80778C4.73582 2.85695 4.94832 3.08862 4.97249 3.37195L5.16832 5.70612C17.065 5.71112 17.1033 5.71695 17.1608 5.72362C17.625 5.79112 18.0333 6.03362 18.3117 6.40695C18.59 6.77945 18.7067 7.23862 18.64 7.69862L17.8492 13.1636C17.7 14.2036 16.7967 14.9878 15.7467 14.9878H15.7425H6.65249H6.64582Z" fill="black"/>
<path fill-rule="evenodd" clip-rule="evenodd" d="M14.4067 10.0364H12.0967C11.7508 10.0364 11.4717 9.75638 11.4717 9.41138C11.4717 9.06638 11.7508 8.78638 12.0967 8.78638H14.4067C14.7517 8.78638 15.0317 9.06638 15.0317 9.41138C15.0317 9.75638 14.7517 10.0364 14.4067 10.0364" fill="black"/>
<path fill-rule="evenodd" clip-rule="evenodd" d="M6.28717 17.2516C6.53801 17.2516 6.74051 17.4541 6.74051 17.7049C6.74051 17.9558 6.53801 18.1591 6.28717 18.1591C6.03551 18.1591 5.83301 17.9558 5.83301 17.7049C5.83301 17.4541 6.03551 17.2516 6.28717 17.2516" fill="black"/>
<mask id="mask0_83_461" style="mask-type:alpha" maskUnits="userSpaceOnUse" x="5" y="17" width="2" height="2">
<path fill-rule="evenodd" clip-rule="evenodd" d="M5.83252 17.7046C5.83252 17.9562 6.03502 18.1596 6.28752 18.1596V18.1596C6.53835 18.1596 6.74085 17.9562 6.74085 17.7046V17.7046C6.74085 17.4537 6.53835 17.2512 6.28752 17.2512V17.2512C6.03502 17.2512 5.83252 17.4537 5.83252 17.7046V17.7046Z" fill="white"/>
</mask>
<g mask="url(#mask0_83_461)">
<path fill-rule="evenodd" clip-rule="evenodd" d="M1.6665 22.3254H10.9073V13.0846H1.6665V22.3254Z" fill="black"/>
</g>
<path fill-rule="evenodd" clip-rule="evenodd" d="M6.28634 17.534C6.19217 17.534 6.11551 17.6106 6.11551 17.7048C6.11551 17.894 6.45801 17.894 6.45801 17.7048C6.45801 17.6106 6.38051 17.534 6.28634 17.534M6.28634 18.784C5.69134 18.784 5.20801 18.2998 5.20801 17.7048C5.20801 17.1098 5.69134 16.6265 6.28634 16.6265C6.88134 16.6265 7.36551 17.1098 7.36551 17.7048C7.36551 18.2998 6.88134 18.784 6.28634 18.784" fill="black"/>
<path fill-rule="evenodd" clip-rule="evenodd" d="M15.6876 17.2516C15.9384 17.2516 16.1417 17.4541 16.1417 17.7049C16.1417 17.9558 15.9384 18.1591 15.6876 18.1591C15.4359 18.1591 15.2334 17.9558 15.2334 17.7049C15.2334 17.4541 15.4359 17.2516 15.6876 17.2516" fill="black"/>
<mask id="mask1_83_461" style="mask-type:alpha" maskUnits="userSpaceOnUse" x="15" y="17" width="2" height="2">
<path fill-rule="evenodd" clip-rule="evenodd" d="M15.2334 17.7046C15.2334 17.9562 15.4359 18.1596 15.6876 18.1596V18.1596C15.9376 18.1596 16.1417 17.9562 16.1417 17.7046V17.7046C16.1417 17.4537 15.9376 17.2512 15.6876 17.2512V17.2512C15.4359 17.2512 15.2334 17.4537 15.2334 17.7046V17.7046Z" fill="white"/>
</mask>
<g mask="url(#mask1_83_461)">
<path fill-rule="evenodd" clip-rule="evenodd" d="M11.0669 22.3254H20.3086V13.0846H11.0669V22.3254Z" fill="black"/>
</g>
<path fill-rule="evenodd" clip-rule="evenodd" d="M15.6867 17.534C15.5934 17.534 15.5167 17.6106 15.5167 17.7048C15.5176 17.8956 15.8592 17.894 15.8584 17.7048C15.8584 17.6106 15.7809 17.534 15.6867 17.534M15.6867 18.784C15.0917 18.784 14.6084 18.2998 14.6084 17.7048C14.6084 17.1098 15.0917 16.6265 15.6867 16.6265C16.2826 16.6265 16.7667 17.1098 16.7667 17.7048C16.7667 18.2998 16.2826 18.784 15.6867 18.784" fill="black"/>
</svg>
