<svg width="24" height="24" viewBox="0 0 24 24" fill="none" xmlns="http://www.w3.org/2000/svg">
<path d="M11.4924 2.78906H7.75337C4.67837 2.78906 2.75037 4.96606 2.75037 8.04806V16.3621C2.75037 19.4441 4.66937 21.6211 7.75337 21.6211H16.5774C19.6624 21.6211 21.5814 19.4441 21.5814 16.3621V12.3341" stroke="#000000" stroke-width="1.5" stroke-linecap="round" stroke-linejoin="round"/>
<path fill-rule="evenodd" clip-rule="evenodd" d="M8.82788 10.921L16.3009 3.44799C17.2319 2.51799 18.7409 2.51799 19.6719 3.44799L20.8889 4.66499C21.8199 5.59599 21.8199 7.10599 20.8889 8.03599L13.3799 15.545C12.9729 15.952 12.4209 16.181 11.8449 16.181H8.09888L8.19288 12.401C8.20688 11.845 8.43388 11.315 8.82788 10.921Z" stroke="#000000" stroke-width="1.5" stroke-linecap="round" stroke-linejoin="round"/>
<path d="M15.1653 4.60254L19.7313 9.16854" stroke="#000000" stroke-width="1.5" stroke-linecap="round" stroke-linejoin="round"/>
</svg>
