<svg width="19" height="18" viewBox="0 0 19 18" fill="none" xmlns="http://www.w3.org/2000/svg">
<path d="M13.0625 10.47C13.25 10.5675 13.37 10.62 13.4075 10.695C13.4525 10.7775 13.4375 11.1525 13.25 11.58C13.1 12 12.32 12.405 11.975 12.42C11.63 12.435 11.6225 12.69 9.755 11.8725C7.8875 11.055 6.7625 9.06 6.6725 8.9325C6.5825 8.805 5.9525 7.8975 5.9825 6.975C6.02 6.06 6.5 5.625 6.695 5.445C6.875 5.25 7.0775 5.2275 7.205 5.25H7.5575C7.67 5.25 7.8275 5.205 7.97 5.5875L8.4875 6.99C8.5325 7.0875 8.5625 7.2 8.495 7.32L8.2925 7.6275L8 7.9425C7.91 8.0325 7.805 8.13 7.91 8.3175C8 8.5125 8.375 9.135 8.9 9.6525C9.5825 10.3125 10.1825 10.53 10.3625 10.6275C10.5425 10.7325 10.655 10.7175 10.7675 10.5975L11.375 9.8925C11.5175 9.705 11.6375 9.75 11.81 9.81L13.0625 10.47ZM9.5 1.5C13.64 1.5 17 4.86 17 9C17 13.14 13.64 16.5 9.5 16.5C8.0225 16.5 6.65 16.0725 5.4875 15.3375L2 16.5L3.1625 13.0125C2.4275 11.85 2 10.4775 2 9C2 4.86 5.36 1.5 9.5 1.5ZM9.5 3C6.185 3 3.5 5.685 3.5 9C3.5 10.29 3.905 11.4825 4.595 12.4575L3.875 14.625L6.0425 13.905C7.0175 14.595 8.21 15 9.5 15C12.815 15 15.5 12.315 15.5 9C15.5 5.685 12.815 3 9.5 3Z" fill="currentColor"/>
</svg>
